<svg xmlns="http://www.w3.org/2000/svg" viewBox="0 0 1299.68 1300.4"><title>Asset 1</title><g id="Layer_2" data-name="Layer 2"><g id="Layer_1-2" data-name="Layer 1"><path id="Path_249" data-name="Path 249" d="M883.16,1300.4c-123,0-224-94.54-234.2-214.93C638.58,1205.69,537.7,1300,414.79,1300,185.71,1300,0,1114.33,0,885.25v-1.73C0,759.78,95.62,658.38,217,649.16,95.62,639.93,0,538.53,0,414.79,0,185.71,185.71,0,414.79,0h1.73c123,0,224,94.54,234.2,214.93C661.1,94.71,762,.36,884.89.36c229.08,0,414.79,185.71,414.79,414.79v1.73c0,123.74-95.63,225.14-217,234.37,121.37,9.22,217,110.63,217,234.36,0,229.08-185.71,414.79-414.79,414.79Z"/></g></g></svg>