<svg xmlns="http://www.w3.org/2000/svg" viewBox="0 0 241.7 36.88"><defs><style>.cls-1{fill:#231f20;}</style></defs><title>Asset 1</title><g id="Layer_2" data-name="Layer 2"><g id="Layer_1-2" data-name="Layer 1"><path class="cls-1" d="M13.82,26.16c0-1.47,0-3.06.07-4.68a22.38,22.38,0,0,1-3.34-2.84c-.15-.4.32-.83.68-.54l.43.43a11.93,11.93,0,0,0,2.27,1.12C14.15,14,14.58,8,15.19,3.52c-5,.69-10.15,2.77-13,7.53a9.52,9.52,0,0,0-1,4.21,7.13,7.13,0,0,0,7.66,7.23,5.89,5.89,0,0,0,1.66-.29c.32-.1.65.11.29.36A7.55,7.55,0,0,1,8,23a7.75,7.75,0,0,1-6.77-3.39A8.57,8.57,0,0,1,0,15a10.64,10.64,0,0,1,1.12-4.72c2.62-5,9.25-7.48,14.25-7.92.14-.79.25-1.51.4-2.16.28-.39,1.62-.07,1.51.51A15,15,0,0,0,17,2.26c4.86-.18,11.7,1.41,14.36,6.16a8.16,8.16,0,0,1,1.12,4c0,5.07-5.73,9-12.85,9.39a16.1,16.1,0,0,1-4.29-.54c3.64,2.41,8.75,4.93,13.11,4.93,3.67,0,7.09-1.83,10.22-4,1.55-1-.07.94-.76,1.52-2.52,2.16-5.83,3.74-8.82,3.74-4.35,0-9.64-2.3-13.78-5-.11,2.26-.15,4.42-.15,6.44s0,3.89.15,5.43l.11.18a.3.3,0,0,1-.29.33c-.4,0-.65-.76-.9-1.08A49.71,49.71,0,0,1,13.82,26.16Zm3-22.78C16.2,7.77,15.66,14,15.37,20.12a14.65,14.65,0,0,0,4.39.57c6.52-.61,11.52-4.39,11.52-8.74a6.51,6.51,0,0,0-1.12-3.53c-2.52-3.67-6.91-5.15-11.44-5.15a9.75,9.75,0,0,0-1.08,0Z"/><path class="cls-1" d="M43.7,21.45A3.22,3.22,0,0,1,43.78,23a3.11,3.11,0,0,1-3.46,2.59,2.7,2.7,0,0,1-2.41-2.2c-.25-1.51.68-3.24,1.51-3.53.07,0,.11,0,.18,0A1,1,0,0,1,40.72,19,3.72,3.72,0,0,1,43,20.22a22.47,22.47,0,0,0,2.66.15c1.7,0,3.1-.15,3.42-.15,1,0,.79.44-.07.72A17.4,17.4,0,0,1,43.7,21.45Zm-4.53,1.83c.18,1,.57,1.44,1.26,1.41,1.58-.07,2.37-2.13,1.8-3.42a5.56,5.56,0,0,1-2-.69l-.07.08A3.26,3.26,0,0,0,39.17,23.28Z"/><path class="cls-1" d="M49.14,24.44a5.74,5.74,0,0,0,1.19.1,18,18,0,0,0,3.52-.39c-.89-.47-2.26-1.15-3-1.55-.94-.54-1.95-.9-2.09-2-.29-1.91,3.64-3.06,5.47-3.31.58-.07,1.3.61,1,1-1.33.47-4.61,1.08-5,2-.22.5.61.86,1.33,1.29a26.38,26.38,0,0,1,3.16,1.87c.8.69.11,1.7-.82,1.95a10.15,10.15,0,0,1-2.52.29,6.73,6.73,0,0,1-2.31-.33C48.67,25.16,48.35,24.26,49.14,24.44Z"/><path class="cls-1" d="M57.53,22.67a2.63,2.63,0,0,1,1.29-2.19,6.27,6.27,0,0,1,3.46-1,7.2,7.2,0,0,1,2.91.62h0l.61-.83c.22-.4,1.44.39,1.19.83A9.14,9.14,0,0,0,66.45,22a1.36,1.36,0,0,0,.8,1.51c1.83.36,4.93-1.48,6.22-2.92.62-.61,1.16.29-.82,2.27-.9.9-3.39,2-4.9,1.69a3.38,3.38,0,0,1-2.56-2.26c-1,.9-3.38,2.73-5.29,2.73a2.35,2.35,0,0,1-1.29-.36A2.43,2.43,0,0,1,57.53,22.67Zm7-1.83a5,5,0,0,0-1.4-.18c-1.8,0-4.18.68-4.57,2.34a.65.65,0,0,0,.65.86A10.68,10.68,0,0,0,64.58,20.84Z"/><path class="cls-1" d="M73.29,19.18c0-.25.36-.25.72-.07a1,1,0,0,1,.54.75l0,1.41c.9-1.15,3.56-3.24,5.54-2.92.83.15,1.33.9,1.08,1.19-.5.58-1,.36-1,.07l0-.29c-1.8,0-4.79,2.16-5.66,4.65a10,10,0,0,0-.25,1.54c0,.47-1.15,0-1.29-.54C72.86,24.65,72.79,23.72,73.29,19.18Z"/><path class="cls-1" d="M82.55,21.48a5.7,5.7,0,0,1,.61-2.84c0-.18.4-.22.83-.11s.61.43.57.61c-.29.29-1,4.36-.46,4.83a1.71,1.71,0,0,0,1,.32c2.23,0,6-2.88,7.13-4,.14-.14.5.07.07.87-.69,1.26-4,4.1-6.44,4.21a3.19,3.19,0,0,1-2.56-.94A4.76,4.76,0,0,1,82.55,21.48Zm1.08-6c.07-.11.32-.83.39-1L84.1,14c0-.22.39-.29.75-.14s.76.39.68.57a1.44,1.44,0,0,1-.1.61c-.08.18-.36,1-.47,1.16s-.54.14-.86,0S83.45,15.65,83.63,15.51Z"/><path class="cls-1" d="M97.74,19.79c.47,0,1,0,1.51,0a64.05,64.05,0,0,0,12-1.19c.25-.07,1.58-.4,1.76-.11s-1.22.87-1.47.94A46,46,0,0,1,99.68,21.2c-.36,0-.72,0-1,0a3.92,3.92,0,0,1,.11,1.69c-.26,1.44-1.55,2.88-4.07,2.66a3.42,3.42,0,0,1-3.06-2.91,3.48,3.48,0,0,1,1.73-3.31,1.47,1.47,0,0,1,.86.07l0,0c-.15-.4,0-.54.54-.54A4.32,4.32,0,0,1,97.74,19.79Zm-3.17.4-.11-.07a2,2,0,0,0-1.33,1.69c-.25,1.29.25,2.55,1.4,2.77a2.35,2.35,0,0,0,2.78-2.27,1.92,1.92,0,0,0-.4-1.33l-.5-.11A5.29,5.29,0,0,1,94.57,20.19Z"/><path class="cls-1" d="M138.85,20.55a5.81,5.81,0,0,1-2.59-2.38c-.18-.25,0-.43.39-.39s.58.28.72.5a3.32,3.32,0,0,0,1.48,1.37V17.49c0-5,.21-10,.57-13.9-4.86.76-9.71,2.88-12.45,7.46a9.52,9.52,0,0,0-1,4.21,7.13,7.13,0,0,0,7.66,7.23,6,6,0,0,0,1.66-.29c.32-.1.65.11.29.36a7.55,7.55,0,0,1-2.77.44A7.75,7.75,0,0,1,126,19.61,8.57,8.57,0,0,1,124.74,15a10.77,10.77,0,0,1,1.11-4.72c2.52-4.86,8.79-7.34,13.72-7.88l.32-2.2c.29-.39,1.62-.07,1.55.51l-.25,1.58h.29c4.89-.21,11.91,1.3,14.61,6.16a8.16,8.16,0,0,1,1.12,4c0,5.07-5.73,9-12.85,9.39l-.11,0-1.3,0a14.05,14.05,0,0,1-2.7-.61v1.48c0,4.39.15,8.63.43,11.69l.11.18a.3.3,0,0,1-.29.33c-.39,0-.54-.54-.79-.87A113,113,0,0,1,138.85,20.55Zm4.61-17.28a9.75,9.75,0,0,0-1.08,0l-1.3.1c-.5,4.43-.79,10.73-.83,16.85a10.25,10.25,0,0,0,2.88.54l1.37-.11C151,20.08,156,16.3,156,12a6.51,6.51,0,0,0-1.12-3.53C152.38,4.75,148,3.27,143.46,3.27Z"/><path class="cls-1" d="M182.59,10.61a26.15,26.15,0,0,1,5.22.4,2.25,2.25,0,0,1,.82.72c0,.29-.14.43-.43.4a30.32,30.32,0,0,0-5.79-.44c-3.85,0-8.07.36-10.8.58-.07,0-.15,0-.22,0-.21,2.77-.36,5.39-.36,6.37-.11,2.34-.25,5.86-.25,9.21a39.35,39.35,0,0,0,.65,8.6c.14.8-.9.22-1.19-.5-.58-2.56-.72-7.38-.72-11.48,0-2.74.07-5.19.14-6.37l.15-2.34c-1.12,3.85-4,9.57-8.82,9.39-1.76-.07-4-1.37-4-3.24A3.91,3.91,0,0,1,158.11,19a2.93,2.93,0,0,1,1.94-.72,2.77,2.77,0,0,1,1.26.32,1.91,1.91,0,0,1,.83,1.22c.22,1-1.83,3-3.71,2.24a3.05,3.05,0,0,0,.51,1.26,1.63,1.63,0,0,0,1.37.79c4.71.29,7.41-5.4,8.85-11.66-2.88.21-5.58.46-8.35.93-.68.11-1.44-.83-.83-1,2.49-.43,5-.76,9.4-1.12a61,61,0,0,0,1.08-7.52c.1-.58,1.8,0,1.69.65-.22,1.4-.47,4.07-.69,6.73a1.64,1.64,0,0,0,.44,0C175,10.94,179.06,10.61,182.59,10.61ZM158.54,21.16c.83.29,2.27-1,2.41-1.73A2.21,2.21,0,0,0,158.54,21.16Z"/><path class="cls-1" d="M174.27,23.21a3.54,3.54,0,0,1-.18-1,3.14,3.14,0,0,1,2.85-3.28c1.11,0,2.16,1.08,1.76,2.13a3.79,3.79,0,0,1-3.27,2,3,3,0,0,0,2.62,1.84c3.39,0,5.91-2.52,7.42-4.11.83-.86.68,0,.18,1a7.23,7.23,0,0,1-5.8,4C177.73,25.84,175,25.44,174.27,23.21Zm1.12-1c1.51-.69,2.52-1.66,2.12-2.05C176.76,19.36,175.35,21.27,175.39,22.17Z"/><path class="cls-1" d="M185.61,19.18c0-.25.36-.25.72-.07a1,1,0,0,1,.54.75l0,1.41c.9-1.15,3.56-3.24,5.54-2.92.83.15,1.33.9,1.08,1.19-.5.58-1,.36-1,.07l0-.29c-1.79,0-4.78,2.16-5.65,4.65a10,10,0,0,0-.25,1.54c0,.47-1.15,0-1.29-.54C185.18,24.65,185.11,23.72,185.61,19.18Z"/><path class="cls-1" d="M195.37,24.44a5.74,5.74,0,0,0,1.19.1,18.15,18.15,0,0,0,3.53-.39c-.9-.47-2.27-1.15-3-1.55-.94-.54-1.95-.9-2.09-2-.29-1.91,3.64-3.06,5.47-3.31.58-.07,1.3.61,1,1-1.33.47-4.61,1.08-5,2-.22.5.61.86,1.33,1.29A25.59,25.59,0,0,1,201,23.46c.8.69.11,1.7-.82,1.95a10.15,10.15,0,0,1-2.52.29,6.73,6.73,0,0,1-2.31-.33C194.9,25.16,194.58,24.26,195.37,24.44Z"/><path class="cls-1" d="M204.08,23.21a3.24,3.24,0,0,1-.18-1,3.14,3.14,0,0,1,2.85-3.28c1.11,0,2.16,1.08,1.76,2.13a3.8,3.8,0,0,1-3.28,2,3,3,0,0,0,2.63,1.84c3.38,0,5.91-2.52,7.42-4.11.82-.86.68,0,.18,1a7.23,7.23,0,0,1-5.8,4C207.54,25.84,204.8,25.44,204.08,23.21Zm1.12-1c1.51-.69,2.52-1.66,2.12-2.05C206.57,19.36,205.16,21.27,205.2,22.17Z"/><path class="cls-1" d="M216.29,23.93l0,.83c0,.47-1.22.14-1.26-.43a3.52,3.52,0,0,1,0-1.08l.36-3.6c0-.25.36-.29.72-.15s.61.51.58.72l-.08,1.23c1.23-.9,3.82-2.2,5.83-2a1.53,1.53,0,0,1,1.34,1.26c0,.36-.11.9-.15,1.47a1,1,0,0,0,.83.9,13.75,13.75,0,0,0,3.42.29A65.87,65.87,0,0,0,239.9,22.2c.25-.07,1.58-.39,1.76-.1s-1.22.86-1.47.93a46.14,46.14,0,0,1-11.81,1.69,17.14,17.14,0,0,1-3.28-.28,3.47,3.47,0,0,1-2.87-4C219.56,20.69,217,22.42,216.29,23.93Z"/></g></g></svg>